<?xml version="1.0" standalone="no"?>
<!DOCTYPE svg PUBLIC "-//W3C//DTD SVG 20010904//EN"
 "http://www.w3.org/TR/2001/REC-SVG-20010904/DTD/svg10.dtd">
<svg version="1.0" xmlns="http://www.w3.org/2000/svg"
 width="500.000000pt" height="500.000000pt" viewBox="0 0 500.000000 500.000000"
 preserveAspectRatio="xMidYMid meet">
<metadata>
Created by potrace 1.14, written by Peter Selinger 2001-2017
</metadata>
<g transform="translate(0.000000,500.000000) scale(0.100000,-0.100000)"
fill="#000000" stroke="none">
<path d="M4160 3301 c-172 -53 -310 -271 -314 -496 -1 -110 18 -169 74 -219
137 -123 379 -25 486 198 107 222 74 461 -69 515 -32 12 -139 13 -177 2z m124
-134 c45 -45 43 -157 -4 -311 -20 -62 -64 -134 -104 -168 -31 -26 -89 -40
-120 -29 -58 23 -73 133 -37 274 32 122 75 195 139 234 49 30 96 30 126 0z"/>
<path d="M630 3256 c-52 -26 -105 -90 -120 -144 -6 -22 -10 -167 -10 -356 l0
-319 812 6 c446 4 932 7 1080 7 l268 0 0 55 0 55 -540 0 -540 0 0 65 0 65 540
0 540 0 0 55 0 55 -540 0 -540 0 0 65 0 65 540 0 540 0 0 55 0 55 -540 0 -540
0 0 65 0 65 522 0 522 0 -39 40 c-72 73 -24 70 -1019 70 l-891 -1 -45 -23z
m489 -62 l44 -19 -84 0 c-67 0 -95 -5 -137 -24 -66 -30 -141 -110 -165 -177
-21 -61 -22 -156 -1 -217 21 -61 93 -141 158 -175 44 -23 63 -27 138 -27 l87
0 -37 -20 c-30 -16 -56 -20 -142 -20 -101 0 -108 1 -168 34 -104 56 -164 143
-185 265 -28 164 81 339 244 392 61 19 191 13 248 -12z m205 -203 c28 35 29
34 10 -31 -6 -24 3 -25 30 -5 32 24 39 17 16 -15 l-21 -30 43 -1 43 -1 -37
-16 c-21 -10 -38 -20 -38 -24 0 -3 15 -12 33 -19 l32 -13 -38 -4 -37 -3 22
-31 c20 -30 21 -31 2 -24 -51 21 -54 20 -44 -15 14 -48 13 -48 -17 -10 l-27
34 -11 -39 -12 -39 -8 39 -8 39 -29 -34 c-17 -19 -27 -26 -24 -16 3 11 9 30
12 44 7 25 7 25 -24 9 -43 -22 -46 -20 -22 14 l21 30 -38 1 -38 0 33 16 c17 9
32 19 32 22 0 3 -17 13 -38 23 l-37 16 43 1 43 1 -21 30 c-24 34 -21 36 21 14
30 -15 31 -15 25 5 -19 67 -19 67 11 31 l30 -34 8 39 8 40 12 -39 11 -39 28
34z"/>
<path d="M3474 3230 c-65 -13 -143 -58 -195 -111 -97 -100 -166 -290 -157
-433 21 -321 403 -309 559 18 87 181 90 367 9 460 -51 58 -133 83 -216 66z
m71 -126 c47 -19 59 -145 26 -277 -41 -160 -116 -249 -209 -249 -68 0 -99 70
-82 192 32 231 149 378 265 334z"/>
<path d="M2843 3173 c-85 -6 -130 -66 -83 -113 15 -15 33 -20 76 -20 48 0 55
-2 50 -17 -16 -55 -126 -590 -126 -612 0 -38 17 -51 66 -51 76 0 79 8 168 423
63 297 76 370 66 382 -12 15 -80 17 -217 8z"/>
<path d="M4280 2444 c-19 -2 -91 -9 -160 -14 -382 -32 -864 -128 -1213 -240
-113 -36 -130 -45 -147 -73 -11 -18 -20 -40 -20 -50 0 -33 29 -74 60 -87 28
-12 44 -9 164 29 263 83 594 157 901 200 132 19 456 51 518 51 18 0 39 11 58
29 37 37 39 88 6 127 -20 22 -33 27 -78 29 -30 2 -70 1 -89 -1z"/>
<path d="M500 2265 l0 -55 1080 0 1080 0 0 55 0 55 -1080 0 -1080 0 0 -55z"/>
<path d="M500 2025 l0 -55 1080 0 1080 0 0 55 0 55 -1080 0 -1080 0 0 -55z"/>
<path d="M4105 2053 c-344 -43 -762 -135 -876 -193 -58 -30 -71 -103 -25 -148
34 -35 67 -33 215 11 221 66 458 113 721 142 120 13 137 17 159 40 37 36 36
98 -2 131 -24 21 -38 24 -95 23 -37 -1 -80 -4 -97 -6z"/>
<path d="M571 1804 c74 -79 5 -74 1009 -74 862 0 896 1 935 20 41 19 69 41 94
73 13 16 -41 17 -1030 17 l-1043 0 35 -36z"/>
</g>
</svg>
